# xmcd
#
# Track frame offsets: 
#        150
#        18788
#        41944
#        60900
#        77064
#        92925
#        108934
#        130153
#        143691
#        158685
#        179040
#        188727
#        209480
#
# Disc length: 2925 seconds
#
# Revision: 1
# Processed by: cddbd v1.5.2PL0 Copyright (c) Steve Scherf et al.
# Submitted via: ExactAudioCopy v0.99pb3
#
DISCID=ac0b6b0d
DTITLE=Al Petteway - Shades of Blue
DYEAR=2002
DGENRE=Acoustic Guitar
TTITLE0=Meant to Be
TTITLE1=Slinky Soozie
TTITLE2=E Funk
TTITLE3=St. Clair's Rag
TTITLE4=Lightning Rod
TTITLE5=After Dark
TTITLE6=Smoky Mountain Morning
TTITLE7=Eureka Hotel
TTITLE8=The Darkest Hour
TTITLE9=Alphonso Brown is Back in Town
TTITLE10=Tony's Rag
TTITLE11=Station to Station
TTITLE12=Requiem
EXTD=YEAR: 2002 ID3G: 0
EXTT0=
EXTT1=
EXTT2=
EXTT3=
EXTT4=
EXTT5=
EXTT6=
EXTT7=
EXTT8=
EXTT9=
EXTT10=
EXTT11=
EXTT12=
PLAYORDER=
